<svg width="29" height="29" viewBox="0 0 29 29" fill="none" xmlns="http://www.w3.org/2000/svg">
<path d="M10.875 12.0833C10.5545 12.0833 10.2472 12.2106 10.0206 12.4372C9.79397 12.6638 9.66667 12.9712 9.66667 13.2917V15.7083C9.66667 16.0288 9.79397 16.3361 10.0206 16.5627C10.2472 16.7894 10.5545 16.9167 10.875 16.9167C11.1955 16.9167 11.5028 16.7894 11.7294 16.5627C11.956 16.3361 12.0833 16.0288 12.0833 15.7083V13.2917C12.0833 12.9712 11.956 12.6638 11.7294 12.4372C11.5028 12.2106 11.1955 12.0833 10.875 12.0833ZM25.375 13.2917C25.6955 13.2917 26.0028 13.1644 26.2294 12.9377C26.456 12.7111 26.5833 12.4038 26.5833 12.0833V7.24999C26.5833 6.92952 26.456 6.62218 26.2294 6.39557C26.0028 6.16896 25.6955 6.04166 25.375 6.04166H3.625C3.30453 6.04166 2.99719 6.16896 2.77058 6.39557C2.54397 6.62218 2.41667 6.92952 2.41667 7.24999V12.0833C2.41667 12.4038 2.54397 12.7111 2.77058 12.9377C2.99719 13.1644 3.30453 13.2917 3.625 13.2917C3.94547 13.2917 4.25281 13.419 4.47942 13.6456C4.70603 13.8722 4.83333 14.1795 4.83333 14.5C4.83333 14.8205 4.70603 15.1278 4.47942 15.3544C4.25281 15.581 3.94547 15.7083 3.625 15.7083C3.30453 15.7083 2.99719 15.8356 2.77058 16.0622C2.54397 16.2888 2.41667 16.5962 2.41667 16.9167V21.75C2.41667 22.0705 2.54397 22.3778 2.77058 22.6044C2.99719 22.831 3.30453 22.9583 3.625 22.9583H25.375C25.6955 22.9583 26.0028 22.831 26.2294 22.6044C26.456 22.3778 26.5833 22.0705 26.5833 21.75V16.9167C26.5833 16.5962 26.456 16.2888 26.2294 16.0622C26.0028 15.8356 25.6955 15.7083 25.375 15.7083C25.0545 15.7083 24.7472 15.581 24.5206 15.3544C24.294 15.1278 24.1667 14.8205 24.1667 14.5C24.1667 14.1795 24.294 13.8722 24.5206 13.6456C24.7472 13.419 25.0545 13.2917 25.375 13.2917ZM24.1667 11.0925C23.4669 11.3465 22.8622 11.8098 22.4349 12.4194C22.0076 13.0291 21.7784 13.7555 21.7784 14.5C21.7784 15.2445 22.0076 15.9709 22.4349 16.5805C22.8622 17.1902 23.4669 17.6535 24.1667 17.9075V20.5417H12.0833C12.0833 20.2212 11.956 19.9138 11.7294 19.6872C11.5028 19.4606 11.1955 19.3333 10.875 19.3333C10.5545 19.3333 10.2472 19.4606 10.0206 19.6872C9.79397 19.9138 9.66667 20.2212 9.66667 20.5417H4.83333V17.9075C5.53314 17.6535 6.13778 17.1902 6.56507 16.5805C6.99236 15.9709 7.22158 15.2445 7.22158 14.5C7.22158 13.7555 6.99236 13.0291 6.56507 12.4194C6.13778 11.8098 5.53314 11.3465 4.83333 11.0925V8.45832H9.66667C9.66667 8.77879 9.79397 9.08614 10.0206 9.31274C10.2472 9.53935 10.5545 9.66666 10.875 9.66666C11.1955 9.66666 11.5028 9.53935 11.7294 9.31274C11.956 9.08614 12.0833 8.77879 12.0833 8.45832H24.1667V11.0925Z" fill="white" fill-opacity="0.75"/>
</svg>
