<svg width="25" height="25" viewBox="0 0 25 25" fill="none" xmlns="http://www.w3.org/2000/svg">
<path d="M16.9829 13.3579C18.1676 12.4259 19.0322 11.1478 19.4567 9.70144C19.8811 8.25509 19.8442 6.71241 19.351 5.28803C18.8578 3.86365 17.933 2.6284 16.7051 1.75413C15.4772 0.879852 14.0073 0.410034 12.5 0.410034C10.9927 0.410034 9.5228 0.879852 8.29492 1.75413C7.06703 2.6284 6.14217 3.86365 5.64901 5.28803C5.15585 6.71241 5.11891 8.25509 5.54334 9.70144C5.96776 11.1478 6.83244 12.4259 8.01708 13.3579C5.98718 14.1712 4.21601 15.5201 2.89241 17.2607C1.56881 19.0014 0.742388 21.0687 0.50125 23.2421C0.483795 23.4008 0.497766 23.5613 0.542364 23.7146C0.586962 23.8679 0.661315 24.0109 0.761176 24.1354C0.962856 24.387 1.2562 24.5481 1.57667 24.5833C1.89714 24.6186 2.21848 24.5251 2.47002 24.3234C2.72155 24.1217 2.88267 23.8284 2.91792 23.5079C3.18325 21.1459 4.30954 18.9644 6.0816 17.3802C7.85366 15.7961 10.1473 14.9203 12.5242 14.9203C14.9011 14.9203 17.1947 15.7961 18.9667 17.3802C20.7388 18.9644 21.8651 21.1459 22.1304 23.5079C22.1633 23.8048 22.3049 24.0791 22.5281 24.2777C22.7512 24.4762 23.04 24.5852 23.3387 24.5833H23.4717C23.7884 24.5469 24.0779 24.3867 24.2771 24.1378C24.4763 23.8888 24.569 23.5712 24.535 23.2542C24.2927 21.0746 23.4618 19.002 22.1314 17.2587C20.801 15.5153 19.0213 14.1669 16.9829 13.3579ZM12.5 12.5C11.5441 12.5 10.6096 12.2165 9.81474 11.6854C9.01991 11.1544 8.40041 10.3995 8.03458 9.51631C7.66876 8.63314 7.57304 7.66131 7.75954 6.72374C7.94603 5.78616 8.40636 4.92495 9.08232 4.24899C9.75827 3.57304 10.6195 3.11271 11.5571 2.92621C12.4946 2.73972 13.4665 2.83543 14.3496 3.20126C15.2328 3.56708 15.9877 4.18658 16.5188 4.98142C17.0499 5.77626 17.3333 6.71073 17.3333 7.66668C17.3333 8.94855 16.8241 10.1779 15.9177 11.0844C15.0113 11.9908 13.7819 12.5 12.5 12.5Z" fill="white" fill-opacity="0.75"/>
</svg>
